<svg>
  <symbol xmlns="http://www.w3.org/2000/svg" viewBox="0 0 24 24" id="check">
    <path d="M22.635 13.73c.8-1.007.808-2.443.026-3.463a2.825 2.825 0 01-.555-2.095 2.786 2.786 0 00-1.722-2.968 2.774 2.774 0 01-1.555-1.556 2.781 2.781 0 00-2.965-1.725 2.794 2.794 0 01-2.087-.553l-.046-.035a2.856 2.856 0 00-3.475.006 2.815 2.815 0 01-2.092.555A2.782 2.782 0 005.198 3.62a2.773 2.773 0 01-1.555 1.556A2.785 2.785 0 001.92 8.144a2.806 2.806 0 01-.552 2.09l-.035.046a2.863 2.863 0 00.006 3.48c.455.593.657 1.355.555 2.095a2.786 2.786 0 001.722 2.968c.71.282 1.273.845 1.555 1.556.47 1.188 1.7 1.9 2.966 1.725.74-.102 1.5.1 2.092.556a2.878 2.878 0 003.488 0 2.809 2.809 0 012.089-.556c1.27.176 2.5-.54 2.972-1.732a2.804 2.804 0 011.55-1.558 2.804 2.804 0 001.727-2.968 2.79 2.79 0 01.58-2.116zm-10.493.886c-.62.719-1.7.81-2.432.207l-2.158-1.78a.683.683 0 01.868-1.056l1.863 1.525c.324.265.8.224 1.074-.092L15.5 8.633a.681.681 0 011.031.89l-4.388 5.093z"></path>
  </symbol>

  <symbol xmlns="http://www.w3.org/2000/svg" viewBox="0 0 10 10" id="arrow-s">
    <path d="M1 1l8 8m0 0H1m8 0V1" stroke="#0D122B" stroke-width="1.5" stroke-linecap="round" stroke-linejoin="round"></path>
  </symbol>

    <symbol xmlns="http://www.w3.org/2000/svg" viewBox="0 0 20 20" id="cmp">
    <g>
      <path d="M13.85 3.198L9.793.854a1.74 1.74 0 00-.616-.21c.152.354.238.743.238 1.153v12.602l5.08-8.8a1.76 1.76 0 00-.643-2.401zM8.242 7.07H0v4.688h8.242V7.07zM6.484 0H1.758A1.76 1.76 0 000 1.758v4.14h8.242v-4.14A1.76 1.76 0 006.484 0zM4.14 15.273a.586.586 0 10.002 1.173.586.586 0 00-.001-1.173z"></path>
      <path d="M0 12.93v5.312C0 19.212.789 20 1.758 20h4.726a1.76 1.76 0 001.758-1.758V12.93H0zm4.14 4.687a1.76 1.76 0 01-1.757-1.758 1.759 1.759 0 013.515 0 1.76 1.76 0 01-1.757 1.758zm14.872-7.64l-2.341-4.056a1.743 1.743 0 00-.817-.724 2.902 2.902 0 01-.344.988L9.414 16.743v.808l8.954-5.17a1.762 1.762 0 00.644-2.404zm.782 2.73a2.927 2.927 0 01-.8.69L9.299 19.01c-.1.363-.264.697-.486.99h9.43A1.76 1.76 0 0020 18.242v-4.726a1.74 1.74 0 00-.206-.809z"></path>
    </g>
  </symbol>

   <symbol xmlns="http://www.w3.org/2000/svg" viewBox="0 0 24 20" id="glass">
    <path d="M14.075 0h-4.15L8.694 6.807h6.612L14.076 0zm9.923 6.807a3.314 3.314 0 00-.45-1.106l-2.3-3.562C20.474.939 18.82 0 17.481 0H15.52l1.23 6.807h7.248zM8.824 8.388L12 18.596l3.176-10.208H8.824zM8.48 0H6.519C5.18 0 3.526.94 2.752 2.139l-2.3 3.562a3.315 3.315 0 00-.45 1.106H7.25L8.479 0zm8.195 8.388L13.062 20a2.78 2.78 0 00.899-.613l9.174-9.32c.442-.449.733-1.043.865-1.679h-7.325zM0 8.388c.132.636.423 1.23.865 1.68l9.174 9.319c.262.266.567.473.899.613L7.325 8.388H0z"></path>
  </symbol>

   <symbol xmlns="http://www.w3.org/2000/svg" viewBox="0 0 24 20" id="auto">
    <g>
      <path d="M0 15.717V1.427C0 .637.73 0 1.634 0h10.37c.904 0 1.632.64 1.632 1.429v14.285c0 .79-.732 1.429-1.636 1.429H7.626c-.14-1.598-1.669-2.857-3.535-2.857-1.74 0-3.187 1.094-3.488 2.537-.368-.261-.603-.66-.603-1.106z"></path>
      <path d="M6.545 17.857C6.545 19.041 5.447 20 4.091 20s-2.455-.96-2.455-2.143c0-1.183 1.1-2.143 2.455-2.143 1.356 0 2.454.96 2.454 2.143zm13.091 0c0 1.184-1.099 2.143-2.454 2.143-1.356 0-2.455-.96-2.455-2.143 0-1.183 1.1-2.143 2.455-2.143s2.454.96 2.454 2.143z"></path>
      <path d="M21.818 9.048C24 9.048 24 10.616 24 12.018v3.696c0 .79-.733 1.429-1.636 1.429h-1.647c-.14-1.598-1.669-2.857-3.535-2.857-.703 0-1.358.178-1.91.486V1.905h3.307c1.23 0 2.27.795 2.432 1.86l.807 5.283z"></path>
    </g>
  </symbol>

   <symbol xmlns="http://www.w3.org/2000/svg" viewBox="0 0 407.055 407.055" id="box">
    <path d="M404.8 102.527l-165.6-97.2c-1.2-.8-2-.8-3.2-.8l-32 2-32-2c-1.2 0-2.4 0-3.2.8l-165.6 97.2c-1.6.8-3.2 2.8-3.2 4.8 0 3.2 2.4 6 5.2 6l24.8 1.6-24.4 74c-.8 2.8.4 5.6 2.4 6.8l24 14v91.6c0 2 1.2 4 2.8 4.8l164.4 95.2c.4 0 .4.4.8.4 0 0 .4 0 .4.4.8.4 1.2.4 2 .4s1.2 0 2-.4c0 0 .4 0 .4-.4.4 0 .4 0 .8-.4l164.4-95.2c2-1.2 2.8-3.2 2.8-5.2l.8-92 23.2-13.6c2.4-1.2 3.6-4 2.4-6.8l-24.4-74 26.8-1.6c3.2 0 5.6-2.8 5.2-6 .8-1.6-.4-3.6-2-4.4zm-195.2-80l74.4 43.6 73.6 43.2-98 58-50-29.2v-115.6zm-184.8 80.8l148.4-87.2 12 .8-25.2 14.8-41.6 24.4-81.6 48-12-.8zm173.2-80.8v115.6l-50 29.2-24-14-74.4-43.6 74.4-43.6 74-43.6zm-179.6 165.6l23.2-69.6 154.8 92-22.4 69.2-76.8-45.2-55.6-32.8-23.2-13.6zm178.8 198.4L44 298.127v-81.6l47.2 27.6 82.8 48.8c2.8 1.6 6.4.8 8-2 .4-.4.4-.8.4-1.2l14.8-45.6v142.4zm6.8-186l-44.8-26.4 44.8-26 44.4 25.6-44.4 26.8zm158 97.6l-153.2 88.8v-142.4l14.8 45.6c0 .4.4.8.4 1.2 1.6 2.8 5.2 3.6 8 2l82.8-48.8 48-28.4-.8 82zm26-109.6l-22 12.8-56.8 33.6-76.8 44.8-22.4-69.2 80-46.8 75.2-44 22.8 68.8zm-16.8-84.4l-81.6-48-66.8-39.2 12-.8 148 86.8-11.6 1.2z"></path>
  </symbol>

  <symbol  xmlns="http://www.w3.org/2000/svg" viewBox="0 0 24 24" id="option">
    <path fill-rule="evenodd" clip-rule="evenodd" d="M0 8a8 8 0 018-8h8a8 8 0 018 8v8a8 8 0 01-8 8H8a8 8 0 01-8-8V8zm6.4-.8a.8.8 0 111.6 0v5.014a1.6 1.6 0 010 2.772V16.8a.8.8 0 01-1.6 0v-1.814a1.6 1.6 0 010-2.772V7.2zm10.4-.8a.8.8 0 00-.8.8v3.414a1.6 1.6 0 000 2.772V16.8a.8.8 0 001.6 0v-3.414a1.6 1.6 0 000-2.772V7.2a.8.8 0 00-.8-.8zm-5.6.8a.8.8 0 011.6 0v1.814a1.6 1.6 0 010 2.772V16.8a.8.8 0 01-1.6 0v-5.014a1.6 1.6 0 010-2.772V7.2z"></path>
  </symbol>
</svg>